<svg width="187" height="24" viewBox="0 0 187 24" fill="none" xmlns="http://www.w3.org/2000/svg">
<path d="M1.22677 23C1.01587 23 0.836605 22.9367 0.688975 22.8102C0.541345 22.6626 0.46753 22.4727 0.46753 22.2408V1.64637C0.46753 1.41438 0.541345 1.22457 0.688975 1.07694C0.836605 0.929314 1.01587 0.855498 1.22677 0.855498H4.10556C4.33755 0.855498 4.51681 0.929314 4.64335 1.07694C4.79098 1.22457 4.8648 1.41438 4.8648 1.64637V9.8082H14.1971V1.64637C14.1971 1.41438 14.2709 1.22457 14.4186 1.07694C14.5662 0.929314 14.7455 0.855498 14.9564 0.855498H17.8035C18.0355 0.855498 18.2253 0.929314 18.3729 1.07694C18.5206 1.22457 18.5944 1.41438 18.5944 1.64637V22.2408C18.5944 22.4517 18.5206 22.6309 18.3729 22.7786C18.2253 22.9262 18.0355 23 17.8035 23H14.9564C14.7455 23 14.5662 22.9262 14.4186 22.7786C14.2709 22.6309 14.1971 22.4517 14.1971 22.2408V13.7626H4.8648V22.2408C4.8648 22.4517 4.79098 22.6309 4.64335 22.7786C4.51681 22.9262 4.33755 23 4.10556 23H1.22677ZM25.3043 23C25.0934 23 24.9141 22.9262 24.7665 22.7786C24.6188 22.6309 24.545 22.4517 24.545 22.2408V1.64637C24.545 1.41438 24.6188 1.22457 24.7665 1.07694C24.9141 0.929314 25.0934 0.855498 25.3043 0.855498H39.2237C39.4556 0.855498 39.6455 0.929314 39.7931 1.07694C39.9407 1.22457 40.0145 1.41438 40.0145 1.64637V3.73428C40.0145 3.94518 39.9407 4.12445 39.7931 4.27208C39.6455 4.41971 39.4556 4.49352 39.2237 4.49352H28.8157V10.0929H38.5277C38.7597 10.0929 38.9495 10.1667 39.0971 10.3144C39.2447 10.4409 39.3186 10.6202 39.3186 10.8522V12.8135C39.3186 13.0455 39.2447 13.2353 39.0971 13.383C38.9495 13.5095 38.7597 13.5728 38.5277 13.5728H28.8157V19.362H39.4767C39.7087 19.362 39.8985 19.4358 40.0462 19.5834C40.1938 19.731 40.2676 19.9209 40.2676 20.1528V22.2408C40.2676 22.4517 40.1938 22.6309 40.0462 22.7786C39.8985 22.9262 39.7087 23 39.4767 23H25.3043ZM43.8639 23C43.6952 23 43.537 22.9367 43.3894 22.8102C43.2628 22.6836 43.1996 22.5255 43.1996 22.3357C43.1996 22.2513 43.2207 22.1564 43.2628 22.0509L50.8869 1.64637C50.9501 1.43547 51.0661 1.25621 51.2349 1.10858C51.4247 0.939859 51.6778 0.855498 51.9941 0.855498H55.4423C55.7587 0.855498 56.0012 0.939859 56.1699 1.10858C56.3386 1.25621 56.4652 1.43547 56.5495 1.64637L64.1736 22.0509C64.1947 22.1564 64.2052 22.2513 64.2052 22.3357C64.2052 22.5255 64.1419 22.6836 64.0154 22.8102C63.8889 22.9367 63.7412 23 63.5725 23H60.8203C60.525 23 60.3036 22.9367 60.1559 22.8102C60.0294 22.6626 59.945 22.5255 59.9029 22.3989L58.416 18.5395H49.0204L47.5336 22.3989C47.4914 22.5255 47.3965 22.6626 47.2489 22.8102C47.1223 22.9367 46.9114 23 46.6162 23H43.8639ZM50.1276 14.9014H57.3088L53.7024 5.12622L50.1276 14.9014ZM68.9179 23C68.707 23 68.5277 22.9262 68.3801 22.7786C68.2324 22.6309 68.1586 22.4517 68.1586 22.2408V1.61474C68.1586 1.40384 68.2324 1.22457 68.3801 1.07694C68.5277 0.929314 68.707 0.855498 68.9179 0.855498H71.8599C72.0708 0.855498 72.2501 0.929314 72.3977 1.07694C72.5454 1.22457 72.6192 1.40384 72.6192 1.61474V19.2354H82.6475C82.8795 19.2354 83.0693 19.3092 83.2169 19.4569C83.3645 19.6045 83.4383 19.7943 83.4383 20.0263V22.2408C83.4383 22.4517 83.3645 22.6309 83.2169 22.7786C83.0693 22.9262 82.8795 23 82.6475 23H68.9179ZM89.5568 23C89.3459 23 89.1666 22.9262 89.019 22.7786C88.8714 22.6309 88.7975 22.4517 88.7975 22.2408V4.7466H82.9451C82.7342 4.7466 82.5549 4.67279 82.4073 4.52516C82.2596 4.37753 82.1858 4.19826 82.1858 3.98736V1.64637C82.1858 1.41438 82.2596 1.22457 82.4073 1.07694C82.5549 0.929314 82.7342 0.855498 82.9451 0.855498H99.0789C99.3109 0.855498 99.5007 0.929314 99.6483 1.07694C99.796 1.22457 99.8698 1.41438 99.8698 1.64637V3.98736C99.8698 4.19826 99.796 4.37753 99.6483 4.52516C99.5007 4.67279 99.3109 4.7466 99.0789 4.7466H93.2581V22.2408C93.2581 22.4517 93.1843 22.6309 93.0366 22.7786C92.889 22.9262 92.6992 23 92.4672 23H89.5568ZM112.22 23.3164C110.258 23.3164 108.592 22.9789 107.221 22.304C105.871 21.6081 104.838 20.6274 104.121 19.362C103.404 18.0755 103.003 16.5359 102.919 14.7433C102.898 13.8786 102.887 12.9506 102.887 11.9594C102.887 10.9682 102.898 10.0191 102.919 9.11223C103.003 7.34067 103.404 5.81165 104.121 4.52516C104.859 3.23867 105.903 2.25798 107.253 1.5831C108.624 0.887134 110.279 0.539149 112.22 0.539149C113.654 0.539149 114.94 0.728959 116.079 1.10858C117.218 1.4882 118.188 2.01545 118.989 2.69033C119.791 3.34412 120.413 4.1139 120.856 4.99968C121.299 5.88546 121.531 6.84506 121.552 7.87847C121.573 8.06828 121.51 8.22645 121.362 8.35299C121.236 8.47953 121.077 8.5428 120.888 8.5428H117.882C117.65 8.5428 117.46 8.49008 117.313 8.38463C117.165 8.25809 117.06 8.05773 116.996 7.78356C116.659 6.39162 116.079 5.44257 115.257 4.93641C114.434 4.43025 113.411 4.17717 112.188 4.17717C110.775 4.17717 109.647 4.57788 108.803 5.3793C107.959 6.15963 107.506 7.45667 107.443 9.27041C107.379 10.9998 107.379 12.7713 107.443 14.5851C107.506 16.3988 107.959 17.7064 108.803 18.5078C109.647 19.2882 110.775 19.6783 112.188 19.6783C113.411 19.6783 114.434 19.4252 115.257 18.9191C116.079 18.3918 116.659 17.4428 116.996 16.0719C117.06 15.7767 117.165 15.5763 117.313 15.4709C117.46 15.3654 117.65 15.3127 117.882 15.3127H120.888C121.077 15.3127 121.236 15.376 121.362 15.5025C121.51 15.629 121.573 15.7872 121.552 15.977C121.531 17.0104 121.299 17.97 120.856 18.8558C120.413 19.7416 119.791 20.5219 118.989 21.1968C118.188 21.8506 117.218 22.3673 116.079 22.7469C114.94 23.1265 113.654 23.3164 112.22 23.3164ZM124.696 23C124.527 23 124.369 22.9367 124.222 22.8102C124.095 22.6836 124.032 22.5255 124.032 22.3357C124.032 22.2513 124.053 22.1564 124.095 22.0509L131.719 1.64637C131.782 1.43547 131.898 1.25621 132.067 1.10858C132.257 0.939859 132.51 0.855498 132.826 0.855498H136.275C136.591 0.855498 136.833 0.939859 137.002 1.10858C137.171 1.25621 137.297 1.43547 137.382 1.64637L145.006 22.0509C145.027 22.1564 145.037 22.2513 145.037 22.3357C145.037 22.5255 144.974 22.6836 144.848 22.8102C144.721 22.9367 144.574 23 144.405 23H141.653C141.357 23 141.136 22.9367 140.988 22.8102C140.862 22.6626 140.777 22.5255 140.735 22.3989L139.248 18.5395H129.853L128.366 22.3989C128.324 22.5255 128.229 22.6626 128.081 22.8102C127.955 22.9367 127.744 23 127.448 23H124.696ZM130.96 14.9014H138.141L134.535 5.12622L130.96 14.9014ZM149.75 23C149.539 23 149.36 22.9262 149.212 22.7786C149.065 22.6309 148.991 22.4517 148.991 22.2408V1.64637C148.991 1.41438 149.065 1.22457 149.212 1.07694C149.36 0.929314 149.539 0.855498 149.75 0.855498H157.944C160.496 0.855498 162.51 1.44602 163.986 2.62706C165.462 3.8081 166.2 5.52693 166.2 7.78356C166.2 9.34422 165.81 10.6413 165.03 11.6747C164.271 12.7081 163.248 13.4568 161.961 13.9208L166.58 21.9877C166.643 22.1142 166.675 22.2302 166.675 22.3357C166.675 22.5255 166.601 22.6836 166.453 22.8102C166.327 22.9367 166.179 23 166.011 23H163.132C162.773 23 162.499 22.9051 162.309 22.7153C162.119 22.5255 161.972 22.3357 161.866 22.1459L157.785 14.6484H153.388V22.2408C153.388 22.4517 153.314 22.6309 153.167 22.7786C153.04 22.9262 152.861 23 152.629 23H149.75ZM153.388 11.0736H157.849C159.135 11.0736 160.095 10.7889 160.727 10.2195C161.36 9.62894 161.677 8.80643 161.677 7.75193C161.677 6.69743 161.36 5.87492 160.727 5.2844C160.116 4.67279 159.156 4.36698 157.849 4.36698H153.388V11.0736ZM172.036 23C171.825 23 171.646 22.9262 171.498 22.7786C171.35 22.6309 171.277 22.4517 171.277 22.2408V1.64637C171.277 1.41438 171.35 1.22457 171.498 1.07694C171.646 0.929314 171.825 0.855498 172.036 0.855498H185.955C186.187 0.855498 186.377 0.929314 186.525 1.07694C186.672 1.22457 186.746 1.41438 186.746 1.64637V3.73428C186.746 3.94518 186.672 4.12445 186.525 4.27208C186.377 4.41971 186.187 4.49352 185.955 4.49352H175.547V10.0929H185.259C185.491 10.0929 185.681 10.1667 185.829 10.3144C185.976 10.4409 186.05 10.6202 186.05 10.8522V12.8135C186.05 13.0455 185.976 13.2353 185.829 13.383C185.681 13.5095 185.491 13.5728 185.259 13.5728H175.547V19.362H186.208C186.44 19.362 186.63 19.4358 186.778 19.5834C186.925 19.731 186.999 19.9209 186.999 20.1528V22.2408C186.999 22.4517 186.925 22.6309 186.778 22.7786C186.63 22.9262 186.44 23 186.208 23H172.036Z" fill="#40A3F8"/>
</svg>
